<svg width="153" height="27" viewBox="0 0 153 27" fill="none" xmlns="http://www.w3.org/2000/svg">
<g id="Social icon">
<path id="Vector" d="M12.5122 14.8319L13.2065 10.0766H8.86524V6.99079C8.86524 5.68984 9.47168 4.42173 11.416 4.42173H13.3896V0.373125C13.3896 0.373125 11.5986 0.0518646 9.88623 0.0518646C6.31104 0.0518646 3.97412 2.32943 3.97412 6.45245V10.0766H0V14.8319H3.97412V26.3275H8.86524V14.8319H12.5122Z" fill="black"/>
<path id="Vector_2" d="M152.208 6.99681C151.936 5.91796 151.133 5.06829 150.113 4.77994C148.264 4.25598 140.852 4.25598 140.852 4.25598C140.852 4.25598 133.44 4.25598 131.591 4.77994C130.571 5.06834 129.768 5.91796 129.495 6.99681C129 8.95229 129 13.0322 129 13.0322C129 13.0322 129 17.1121 129.495 19.0676C129.768 20.1465 130.571 20.9608 131.591 21.2491C133.44 21.7731 140.852 21.7731 140.852 21.7731C140.852 21.7731 148.264 21.7731 150.113 21.2491C151.133 20.9608 151.936 20.1465 152.208 19.0676C152.704 17.1121 152.704 13.0322 152.704 13.0322C152.704 13.0322 152.704 8.95229 152.208 6.99681ZM138.428 16.7365V9.32795L144.623 13.0323L138.428 16.7365Z" fill="black"/>
<path id="Vector_3" d="M58.4302 7.47238C58.446 7.70578 58.446 7.93924 58.446 8.17264C58.446 15.2917 53.2906 23.4945 43.868 23.4945C40.9651 23.4945 38.2684 22.6108 36 21.077C36.4125 21.127 36.809 21.1437 37.2373 21.1437C39.6326 21.1437 41.8375 20.2934 43.5983 18.8429C41.3458 18.7929 39.4581 17.2424 38.8077 15.1083C39.125 15.1583 39.4422 15.1917 39.7754 15.1917C40.2354 15.1917 40.6955 15.1249 41.1237 15.0083C38.776 14.5081 37.0152 12.3407 37.0152 9.72316V9.65649C37.6973 10.0566 38.4905 10.3067 39.3311 10.34C37.9511 9.373 37.0469 7.72246 37.0469 5.85515C37.0469 4.85483 37.3007 3.93785 37.7449 3.13757C40.2671 6.40535 44.0583 8.53937 48.3096 8.77282C48.2303 8.37268 48.1827 7.95592 48.1827 7.5391C48.1827 4.57139 50.4669 2.15393 53.3064 2.15393C54.7816 2.15393 56.1141 2.80415 57.05 3.85451C58.208 3.62111 59.3184 3.17093 60.3019 2.55407C59.9212 3.80452 59.1122 4.85488 58.0494 5.52173C59.0805 5.40508 60.0799 5.10491 60.9999 4.68814C60.302 5.75513 59.4295 6.70541 58.4302 7.47238Z" fill="black"/>
<path id="Vector_4" d="M94.946 7.75674C91.8406 7.75674 89.3357 10.3894 89.3357 13.6534C89.3357 16.9173 91.8406 19.55 94.946 19.55C98.0515 19.55 100.556 16.9173 100.556 13.6534C100.556 10.3894 98.0515 7.75674 94.946 7.75674ZM94.946 17.4869C92.9392 17.4869 91.2986 15.7677 91.2986 13.6534C91.2986 11.539 92.9343 9.81979 94.946 9.81979C96.9578 9.81979 98.5935 11.539 98.5935 13.6534C98.5935 15.7677 96.9529 17.4869 94.946 17.4869ZM102.094 7.51554C102.094 8.2802 101.509 8.89091 100.786 8.89091C100.058 8.89091 99.4773 8.27507 99.4773 7.51554C99.4773 6.75601 100.063 6.14018 100.786 6.14018C101.509 6.14018 102.094 6.75601 102.094 7.51554ZM105.81 8.91143C105.727 7.06906 105.327 5.4371 104.043 4.09253C102.763 2.74795 101.211 2.32713 99.4578 2.23476C97.6511 2.12699 92.2361 2.12699 90.4294 2.23476C88.6814 2.322 87.1287 2.74282 85.8445 4.0874C84.5603 5.43197 84.1648 7.06393 84.0769 8.9063C83.9744 10.8051 83.9744 16.4965 84.0769 18.3953C84.1599 20.2377 84.5603 21.8696 85.8445 23.2142C87.1287 24.5588 88.6765 24.9796 90.4294 25.072C92.2361 25.1797 97.6511 25.1797 99.4578 25.072C101.211 24.9847 102.763 24.5639 104.043 23.2142C105.322 21.8696 105.722 20.2377 105.81 18.3953C105.913 16.4965 105.913 10.8103 105.81 8.91143ZM103.476 20.4327C103.095 21.4385 102.358 22.2135 101.396 22.6189C99.9558 23.2193 96.5378 23.0808 94.946 23.0808C93.3542 23.0808 89.9314 23.2142 88.4958 22.6189C87.5388 22.2186 86.8015 21.4437 86.4158 20.4327C85.8445 18.9187 85.9763 15.3264 85.9763 13.6534C85.9763 11.9803 85.8494 8.38284 86.4158 6.87405C86.7966 5.86818 87.5339 5.09326 88.4958 4.68783C89.9363 4.0874 93.3542 4.22596 94.946 4.22596C96.5378 4.22596 99.9607 4.09253 101.396 4.68783C102.353 5.08813 103.091 5.86305 103.476 6.87405C104.048 8.38797 103.916 11.9803 103.916 13.6534C103.916 15.3264 104.048 18.9239 103.476 20.4327Z" fill="black"/>
</g>
</svg>
